<svg width="169" height="36" viewBox="0 0 169 36" fill="none" xmlns="http://www.w3.org/2000/svg">
<rect width="169" height="36" rx="6" fill="#BE123C"/>
<path fill-rule="evenodd" clip-rule="evenodd" d="M26 26C30.4183 26 34 22.4183 34 18C34 13.5817 30.4183 10 26 10C21.5817 10 18 13.5817 18 18C18 22.4183 21.5817 26 26 26ZM25.5547 15.168C25.2478 14.9634 24.8533 14.9443 24.5281 15.1183C24.203 15.2923 24 15.6312 24 16V20C24 20.3688 24.203 20.7077 24.5281 20.8817C24.8533 21.0557 25.2478 21.0366 25.5547 20.8321L28.5547 18.8321C28.8329 18.6466 29 18.3344 29 18C29 17.6656 28.8329 17.3534 28.5547 17.168L25.5547 15.168Z" fill="white"/>
<path d="M46.94 23L44.35 13.2H46.268L48.032 20.998L50.104 13.2H52.078L54.094 20.998L55.858 13.2H57.79L55.13 23H53.002L51.056 15.734L49.054 23H46.94ZM57.4743 23L61.0583 13.2H63.0743L66.6583 23H64.7543L63.9703 20.732H60.1483L59.3503 23H57.4743ZM60.6383 19.332H63.4803L62.0523 15.258L60.6383 19.332ZM69.1637 23V14.642H66.3077V13.2H73.8257V14.642H70.9557V23H69.1637ZM79.2357 23.168C78.2464 23.168 77.397 22.958 76.6877 22.538C75.9784 22.1087 75.4324 21.516 75.0497 20.76C74.667 19.9947 74.4757 19.1127 74.4757 18.114C74.4757 17.1153 74.667 16.2333 75.0497 15.468C75.4324 14.7027 75.9784 14.1053 76.6877 13.676C77.397 13.2467 78.2464 13.032 79.2357 13.032C80.4117 13.032 81.373 13.326 82.1197 13.914C82.8757 14.4927 83.347 15.3093 83.5337 16.364H81.5597C81.4384 15.832 81.177 15.4167 80.7757 15.118C80.3837 14.81 79.861 14.656 79.2077 14.656C78.3024 14.656 77.593 14.964 77.0797 15.58C76.5664 16.196 76.3097 17.0407 76.3097 18.114C76.3097 19.1873 76.5664 20.032 77.0797 20.648C77.593 21.2547 78.3024 21.558 79.2077 21.558C79.861 21.558 80.3837 21.418 80.7757 21.138C81.177 20.8487 81.4384 20.452 81.5597 19.948H83.5337C83.347 20.956 82.8757 21.7447 82.1197 22.314C81.373 22.8833 80.4117 23.168 79.2357 23.168ZM85.12 23V13.2H86.912V17.274H91.308V13.2H93.1V23H91.308V18.73H86.912V23H85.12ZM100.623 23V14.642H97.7667V13.2H105.285V14.642H102.415V23H100.623ZM106.612 23V13.2H110.21C110.994 13.2 111.638 13.3353 112.142 13.606C112.655 13.8673 113.038 14.2267 113.29 14.684C113.542 15.132 113.668 15.6313 113.668 16.182C113.668 16.7793 113.509 17.3253 113.192 17.82C112.884 18.3147 112.399 18.674 111.736 18.898L113.766 23H111.708L109.888 19.136H108.404V23H106.612ZM108.404 17.82H110.098C110.695 17.82 111.134 17.6753 111.414 17.386C111.694 17.0967 111.834 16.714 111.834 16.238C111.834 15.7713 111.694 15.398 111.414 15.118C111.143 14.838 110.7 14.698 110.084 14.698H108.404V17.82ZM114.705 23L118.289 13.2H120.305L123.889 23H121.985L121.201 20.732H117.379L116.581 23H114.705ZM117.869 19.332H120.711L119.283 15.258L117.869 19.332ZM125.151 23V13.2H126.943V23H125.151ZM128.843 23V13.2H130.635V21.6H134.975V23H128.843ZM136.554 23V13.2H142.952V14.642H138.346V17.33H142.532V18.73H138.346V21.558H142.952V23H136.554ZM144.647 23V13.2H148.245C149.029 13.2 149.673 13.3353 150.177 13.606C150.691 13.8673 151.073 14.2267 151.325 14.684C151.577 15.132 151.703 15.6313 151.703 16.182C151.703 16.7793 151.545 17.3253 151.227 17.82C150.919 18.3147 150.434 18.674 149.771 18.898L151.801 23H149.743L147.923 19.136H146.439V23H144.647ZM146.439 17.82H148.133C148.731 17.82 149.169 17.6753 149.449 17.386C149.729 17.0967 149.869 16.714 149.869 16.238C149.869 15.7713 149.729 15.398 149.449 15.118C149.179 14.838 148.735 14.698 148.119 14.698H146.439V17.82Z" fill="white"/>
</svg>
