<svg width="107" height="25" viewBox="0 0 107 25" fill="none" xmlns="http://www.w3.org/2000/svg">
<path d="M5.346 18.716C4.422 18.716 3.618 18.548 2.934 18.212C2.25 17.876 1.722 17.408 1.35 16.808C0.978 16.208 0.792 15.512 0.792 14.72H2.376C2.376 15.212 2.49 15.668 2.718 16.088C2.946 16.496 3.276 16.826 3.708 17.078C4.152 17.318 4.698 17.438 5.346 17.438C6.198 17.438 6.858 17.234 7.326 16.826C7.794 16.418 8.028 15.908 8.028 15.296C8.028 14.792 7.92 14.39 7.704 14.09C7.488 13.778 7.194 13.526 6.822 13.334C6.462 13.142 6.042 12.974 5.562 12.83C5.094 12.686 4.602 12.524 4.086 12.344C3.114 12.008 2.394 11.594 1.926 11.102C1.458 10.598 1.224 9.944 1.224 9.14C1.212 8.468 1.368 7.874 1.692 7.358C2.016 6.83 2.472 6.422 3.06 6.134C3.66 5.834 4.368 5.684 5.184 5.684C5.988 5.684 6.684 5.834 7.272 6.134C7.872 6.434 8.334 6.848 8.658 7.376C8.994 7.904 9.168 8.504 9.18 9.176H7.596C7.596 8.828 7.506 8.486 7.326 8.15C7.146 7.802 6.87 7.52 6.498 7.304C6.138 7.088 5.682 6.98 5.13 6.98C4.446 6.968 3.882 7.142 3.438 7.502C3.006 7.862 2.79 8.36 2.79 8.996C2.79 9.536 2.94 9.95 3.24 10.238C3.552 10.526 3.984 10.766 4.536 10.958C5.088 11.138 5.724 11.348 6.444 11.588C7.044 11.804 7.584 12.056 8.064 12.344C8.544 12.632 8.916 13.004 9.18 13.46C9.456 13.916 9.594 14.498 9.594 15.206C9.594 15.806 9.438 16.376 9.126 16.916C8.814 17.444 8.34 17.876 7.704 18.212C7.08 18.548 6.294 18.716 5.346 18.716ZM15.6623 18.716C14.8103 18.716 14.0543 18.524 13.3943 18.14C12.7343 17.744 12.2123 17.198 11.8283 16.502C11.4563 15.806 11.2703 14.984 11.2703 14.036C11.2703 13.1 11.4563 12.284 11.8283 11.588C12.2003 10.88 12.7163 10.334 13.3763 9.95C14.0483 9.554 14.8223 9.356 15.6982 9.356C16.5623 9.356 17.3063 9.554 17.9303 9.95C18.5663 10.334 19.0523 10.844 19.3883 11.48C19.7243 12.116 19.8923 12.8 19.8923 13.532C19.8923 13.664 19.8863 13.796 19.8743 13.928C19.8743 14.06 19.8743 14.21 19.8743 14.378H12.7643C12.8003 15.062 12.9563 15.632 13.2323 16.088C13.5203 16.532 13.8743 16.868 14.2943 17.096C14.7263 17.324 15.1823 17.438 15.6623 17.438C16.2863 17.438 16.8083 17.294 17.2283 17.006C17.6483 16.718 17.9543 16.328 18.1463 15.836H19.6403C19.4003 16.664 18.9383 17.354 18.2543 17.906C17.5823 18.446 16.7183 18.716 15.6623 18.716ZM15.6623 10.634C14.9423 10.634 14.3003 10.856 13.7363 11.3C13.1843 11.732 12.8663 12.368 12.7822 13.208H18.3983C18.3623 12.404 18.0863 11.774 17.5703 11.318C17.0543 10.862 16.4183 10.634 15.6623 10.634ZM25.9103 18.716C25.0583 18.716 24.3023 18.524 23.6423 18.14C22.9823 17.744 22.4603 17.198 22.0763 16.502C21.7043 15.806 21.5183 14.984 21.5183 14.036C21.5183 13.1 21.7043 12.284 22.0763 11.588C22.4483 10.88 22.9643 10.334 23.6243 9.95C24.2963 9.554 25.0703 9.356 25.9463 9.356C26.8103 9.356 27.5543 9.554 28.1783 9.95C28.8143 10.334 29.3003 10.844 29.6363 11.48C29.9723 12.116 30.1403 12.8 30.1403 13.532C30.1403 13.664 30.1343 13.796 30.1223 13.928C30.1223 14.06 30.1223 14.21 30.1223 14.378H23.0123C23.0483 15.062 23.2043 15.632 23.4803 16.088C23.7683 16.532 24.1223 16.868 24.5423 17.096C24.9743 17.324 25.4303 17.438 25.9103 17.438C26.5343 17.438 27.0563 17.294 27.4763 17.006C27.8963 16.718 28.2023 16.328 28.3943 15.836H29.8883C29.6483 16.664 29.1863 17.354 28.5023 17.906C27.8303 18.446 26.9663 18.716 25.9103 18.716ZM25.9103 10.634C25.1903 10.634 24.5483 10.856 23.9843 11.3C23.4323 11.732 23.1143 12.368 23.0303 13.208H28.6463C28.6103 12.404 28.3343 11.774 27.8183 11.318C27.3023 10.862 26.6663 10.634 25.9103 10.634ZM36.908 18.5V9.572H38.276L38.384 10.868C38.672 10.388 39.056 10.016 39.536 9.752C40.016 9.488 40.556 9.356 41.156 9.356C41.864 9.356 42.47 9.5 42.974 9.788C43.49 10.076 43.886 10.514 44.162 11.102C44.474 10.562 44.9 10.136 45.44 9.824C45.992 9.512 46.586 9.356 47.222 9.356C48.29 9.356 49.142 9.68 49.778 10.328C50.414 10.964 50.732 11.948 50.732 13.28V18.5H49.238V13.442C49.238 12.518 49.052 11.822 48.68 11.354C48.308 10.886 47.774 10.652 47.078 10.652C46.358 10.652 45.758 10.934 45.278 11.498C44.81 12.05 44.576 12.842 44.576 13.874V18.5H43.064V13.442C43.064 12.518 42.878 11.822 42.506 11.354C42.134 10.886 41.6 10.652 40.904 10.652C40.196 10.652 39.602 10.934 39.122 11.498C38.654 12.05 38.42 12.842 38.42 13.874V18.5H36.908ZM57.0776 18.716C56.2376 18.716 55.4816 18.524 54.8096 18.14C54.1376 17.756 53.6036 17.216 53.2076 16.52C52.8236 15.812 52.6316 14.984 52.6316 14.036C52.6316 13.088 52.8296 12.266 53.2256 11.57C53.6216 10.862 54.1556 10.316 54.8276 9.932C55.5116 9.548 56.2736 9.356 57.1136 9.356C57.9536 9.356 58.7096 9.548 59.3816 9.932C60.0536 10.316 60.5816 10.862 60.9656 11.57C61.3616 12.266 61.5596 13.088 61.5596 14.036C61.5596 14.984 61.3616 15.812 60.9656 16.52C60.5696 17.216 60.0296 17.756 59.3456 18.14C58.6736 18.524 57.9176 18.716 57.0776 18.716ZM57.0776 17.42C57.5936 17.42 58.0736 17.294 58.5176 17.042C58.9616 16.79 59.3216 16.412 59.5976 15.908C59.8736 15.404 60.0116 14.78 60.0116 14.036C60.0116 13.292 59.8736 12.668 59.5976 12.164C59.3336 11.66 58.9796 11.282 58.5356 11.03C58.0916 10.778 57.6176 10.652 57.1136 10.652C56.5976 10.652 56.1176 10.778 55.6736 11.03C55.2296 11.282 54.8696 11.66 54.5936 12.164C54.3176 12.668 54.1796 13.292 54.1796 14.036C54.1796 14.78 54.3176 15.404 54.5936 15.908C54.8696 16.412 55.2236 16.79 55.6556 17.042C56.0996 17.294 56.5736 17.42 57.0776 17.42ZM63.6619 18.5V9.572H65.0299L65.1559 11.282C65.4319 10.694 65.8519 10.226 66.4159 9.878C66.9799 9.53 67.6759 9.356 68.5039 9.356V10.94H68.0899C67.5619 10.94 67.0759 11.036 66.6319 11.228C66.1879 11.408 65.8339 11.72 65.5699 12.164C65.3059 12.608 65.1739 13.22 65.1739 14V18.5H63.6619ZM73.881 18.716C73.029 18.716 72.273 18.524 71.613 18.14C70.953 17.744 70.431 17.198 70.047 16.502C69.675 15.806 69.489 14.984 69.489 14.036C69.489 13.1 69.675 12.284 70.047 11.588C70.419 10.88 70.935 10.334 71.595 9.95C72.267 9.554 73.041 9.356 73.917 9.356C74.781 9.356 75.525 9.554 76.149 9.95C76.785 10.334 77.271 10.844 77.607 11.48C77.943 12.116 78.111 12.8 78.111 13.532C78.111 13.664 78.105 13.796 78.093 13.928C78.093 14.06 78.093 14.21 78.093 14.378H70.983C71.019 15.062 71.175 15.632 71.451 16.088C71.739 16.532 72.093 16.868 72.513 17.096C72.945 17.324 73.401 17.438 73.881 17.438C74.505 17.438 75.027 17.294 75.447 17.006C75.867 16.718 76.173 16.328 76.365 15.836H77.859C77.619 16.664 77.157 17.354 76.473 17.906C75.801 18.446 74.937 18.716 73.881 18.716ZM73.881 10.634C73.161 10.634 72.519 10.856 71.955 11.3C71.403 11.732 71.085 12.368 71.001 13.208H76.617C76.581 12.404 76.305 11.774 75.789 11.318C75.273 10.862 74.637 10.634 73.881 10.634Z" fill="#BE123C"/>
<path d="M94.5 6.66668L100.333 12.5L94.5 18.3333" stroke="#B91C1C" stroke-width="2" stroke-linecap="round" stroke-linejoin="round"/>
</svg>
